<svg width="21" height="18" viewBox="0 0 21 18" fill="none" xmlns="http://www.w3.org/2000/svg">
<path d="M15.5862 0.040472C15.7819 0.0412412 15.9624 0.145944 16.0602 0.315408L16.8104 1.61496C16.9086 1.78508 16.9086 1.99467 16.8104 2.16478L13.8111 7.3592C13.7129 7.5293 13.5314 7.63409 13.335 7.63409H10.2663C9.84301 7.63409 9.57847 7.17589 9.79011 6.80934L11.0875 4.56225C11.2992 4.1957 11.0346 3.7375 10.6114 3.7375H7.84013C7.64369 3.7375 7.46217 3.84229 7.36396 4.01241L4.52686 8.92651C4.42864 9.09663 4.24712 9.20143 4.05069 9.20143H0.550661C0.126006 9.20143 -0.138352 8.74052 0.0760695 8.37398L4.81546 0.272203C4.91447 0.102949 5.09612 -0.000766585 5.29221 4.2672e-06L15.5862 0.040472Z" fill="white"/>
<path d="M5.21433 17.0333C5.01868 17.0325 4.83818 16.9278 4.74034 16.7584L3.9902 15.4593C3.89196 15.2892 3.89195 15.0796 3.99018 14.9095L6.98942 9.71455C7.08764 9.54443 7.26915 9.43964 7.46559 9.43964H10.5343C10.9576 9.43964 11.2221 9.89784 11.0105 10.2644L9.71304 12.5115C9.50141 12.878 9.76594 13.3362 10.1892 13.3362H12.9605C13.1569 13.3362 13.3384 13.2314 13.4366 13.0613L16.2737 8.14773C16.3719 7.97762 16.5534 7.87283 16.7499 7.87283H20.2499C20.6745 7.87283 20.9389 8.33376 20.7245 8.7003L15.9851 16.8015C15.8861 16.9708 15.7044 17.0745 15.5084 17.0737L5.21433 17.0333Z" fill="white"/>
</svg>
